{"title":"Along the Great Divide  (Western 1951)  Kirk Douglas, John Agar ","uid":9308477,"size":515793586,"categoryP":"video","categoryS":"movies","magnet":"?xt=urn:btih:f3d1410b3879df350b5bd38309c91fa4d759754e&amp;dn=Along+the+Great+Divide++%28Western+1951%29++Kirk+Douglas%2C+John+Agar+&amp;tr=udp%3A%2F%2Ftracker.openbittorrent.com%3A80&amp;tr=udp%3A%2F%2Fopen.demonii.com%3A1337&amp;tr=udp%3A%2F%2Ftracker.coppersurfer.tk%3A6969&amp;tr=udp%3A%2F%2Fexodus.desync.com%3A6969","seeders":0,"leechers":1,"uploader":"BurtonW","files":1,"time":1386361465,"description":" &lt;a href=&quot;http://www.imdb.com/title/tt0043276/?ref_=fn_al_tt_1&quot; rel=&quot;nofollow&quot; target=&quot;_NEW&quot;&gt;http://www.imdb.com/title/tt0043276/?ref_=fn_al_tt_1&lt;/a&gt;\n\n\nVery good quality Black &amp; White film.\n\n\nNo subtitles!\n\n\nStoryline:\n\nNew Federal marshal Len Merrick saves Tim Keith from lynching at the hands of the Roden clan, and hopes to get him to Santa Loma for trial. Vindictive Ned Roden, whose son Ed was killed, still wants personal revenge, and Tim would like to escape before Ned catches up with him again. Can the marshal make it across the desert with Tim and his daughter? Even if he makes it, will justice be served?\n\n\nTechnical info:\n\n\nGeneral:\n\nComplete name                  : Along the Great Divide  (Western 1951)  Kirk Douglas, John Agar &amp; Virginia Mayo.mp4\nFormat                         : MPEG-4\nFormat profile                 : Base Media / Version 2\nCodec ID                       : mp42\nFile size                      : 492 MiB\nDuration                       : 1h 24mn\nOverall bit rate mode          : Variable\nOverall bit rate               : 817 Kbps\nEncoded date                   : UTC 2013-12-03 00:27:50\nTagged date                    : UTC 2013-12-03 02:45:38\n\n\nVideo:\n\nID                             : 1\nFormat                         : AVC\nFormat/Info                    : Advanced Video Codec\nFormat profile                 : &lt;a class=&quot;__cf_email__&quot; href=&quot;/cdn-cgi/l/email-protection&quot; data-cfemail=&quot;f1bc90989fb1bdc5dfc1&quot;&gt;[email&amp;#160;protected]&lt;/a&gt;&lt;script data-cfhash='f9e31' type=&quot;text/javascript&quot;&gt;\n/* &lt;![CDATA[ */!function(){try{var t=&quot;currentScript&quot;in document?document.currentScript:function(){for(var t=document.getElementsByTagName(&quot;script&quot;),e=t.length;e--;)if(t[e].getAttribute(&quot;data-cfhash&quot;))return t[e]}();if(t&amp;&amp;t.previousSibling){var e,r,n,i,c=t.previousSibling,a=c.getAttribute(&quot;data-cfemail&quot;);if(a){for(e=&quot;&quot;,r=parseInt(a.substr(0,2),16),n=2;a.length-n;n+=2)i=parseInt(a.substr(n,2),16)^r,e+=String.fromCharCode(i);e=document.createTextNode(e),c.parentNode.replaceChild(e,c)}t.parentNode.removeChild(t);}}catch(u){}}()/* ]]&gt; */&lt;/script&gt;\nFormat settings, CABAC         : Yes\nFormat settings, ReFrames      : 16 frames\nCodec ID                       : avc1\nCodec ID/Info                  : Advanced Video Coding\nDuration                       : 1h 24mn\nBit rate mode                  : Variable\nBit rate                       : 656 Kbps\nWidth                          : 416 pixels\nHeight                         : 304 pixels\nDisplay aspect ratio           : 4:3\nFrame rate mode                : Constant\nFrame rate                     : 25.000 fps\nColor space                    : YUV\nChroma subsampling             : 4:2:0\nBit depth                      : 8 bits\nScan type                      : Progressive\nBits/(Pixel*Frame)             : 0.207\nStream size                    : 395 MiB (80%)\nWriting library                : x264 core 130 r2273 b3065e6\nEncoding settings              : Deleted\nEncoded date                   : UTC 2013-12-03 00:27:50\nTagged date                    : UTC 2013-12-03 02:45:38\nColor primaries                : BT.601 PAL\nTransfer characteristics       : BT.709\nMatrix coefficients            : BT.601\n\nAudio:\n\nID                             : 2\nFormat                         : AAC\nFormat/Info                    : Advanced Audio Codec\nFormat profile                 : LC\nCodec ID                       : 40\nDuration                       : 1h 24mn\nBit rate mode                  : Variable\nBit rate                       : 157 Kbps\nMaximum bit rate               : 238 Kbps\nChannel(s)                     : 2 channels\nChannel positions              : Front: L R\nSampling rate                  : 48.0 KHz\nCompression mode               : Lossy\nDelay relative to video        : 80ms\nStream size                    : 94.3 MiB (19%)\nLanguage                       : English\nEncoded date                   : UTC 2013-12-03 00:27:50\nTagged date                    : UTC 2013-12-03 02:45:37\n\n\n","torrent":{"xt":"urn:btih:f3d1410b3879df350b5bd38309c91fa4d759754e","amp;dn":"Along+the+Great+Divide++%28Western+1951%29++Kirk+Douglas%2C+John+Agar+","amp;tr":["udp%3A%2F%2Ftracker.openbittorrent.com%3A80","udp%3A%2F%2Fopen.demonii.com%3A1337","udp%3A%2F%2Ftracker.coppersurfer.tk%3A6969","udp%3A%2F%2Fexodus.desync.com%3A6969"],"infoHash":"f3d1410b3879df350b5bd38309c91fa4d759754e","infoHashBuffer":{"type":"Buffer","data":[243,209,65,11,56,121,223,53,11,91,211,131,9,201,31,164,215,89,117,78]},"announce":[],"urlList":[]}}